HIERARCHY
ROOT hips
{
	OFFSET -0.003675 0.299928 -0.021708
	CHANNELS 6 Xposition Yposition Zposition Xrotation Yrotation Zrotation
	JOINT LowerBack
	{
		OFFSET 0.000919 0.177588 0.009275
		CHANNELS 3 Xrotation Yrotation Zrotation
		JOINT spine
		{
			OFFSET 0.000919 0.177588 0.009275
			CHANNELS 3 Xrotation Yrotation Zrotation
			JOINT chest
			{
				OFFSET 0.000456 0.100015 0.004638
				CHANNELS 3 Xrotation Yrotation Zrotation
				JOINT neck
				{
					OFFSET 0.000456 0.100015 0.004638
					CHANNELS 3 Xrotation Yrotation Zrotation
					JOINT head
					{
						OFFSET 0.000924 0.155147 0.009274
						CHANNELS 6 Xposition Yposition Zposition Xrotation Yrotation Zrotation
						End Site
						{
							OFFSET 0.000000 0.153400 0.000000
						}
					}
				}
				JOINT shoulder.L
				{
					OFFSET 0.019937 0.078966 0.057518
					CHANNELS 6 Xposition Yposition Zposition Yrotation Xrotation Zrotation
					JOINT upper_arm.L
					{
						OFFSET 0.177024 -0.020465 -0.095062
						CHANNELS 6 Xposition Yposition Zposition Xrotation Yrotation Zrotation
						JOINT forearm.L
						{
							OFFSET 0.247100 -0.135500 -0.061800
							CHANNELS 3 Xrotation Yrotation Zrotation
							JOINT hand.L
							{
								OFFSET 0.217000 -0.143000 0.039300
								CHANNELS 3 Xrotation Yrotation Zrotation
								JOINT palm.01.L
								{
									OFFSET 0.021770 -0.038291 0.012954
									CHANNELS 6 Xposition Yposition Zposition Yrotation Xrotation Zrotation
									JOINT f_index.01.L
									{
										OFFSET 0.053215 -0.044137 0.008236
										CHANNELS 3 Xrotation Yrotation Zrotation
										JOINT f_index.02.L
										{
											OFFSET 0.036108 -0.024723 -0.010656
											CHANNELS 3 Xrotation Yrotation Zrotation
											JOINT f_index.03.L
											{
												OFFSET 0.021342 -0.014948 -0.010846
												CHANNELS 3 Xrotation Yrotation Zrotation
												End Site
												{
													OFFSET 0.015600 -0.009860 -0.013421
												}
											}
										}
									}
									JOINT thumb.01.L
									{
										OFFSET -0.009090 -0.002348 -0.024223
										CHANNELS 6 Xposition Yposition Zposition Xrotation Yrotation Zrotation
										JOINT thumb.02.L
										{
											OFFSET 0.019713 -0.035076 -0.011120
											CHANNELS 3 Xrotation Yrotation Zrotation
											JOINT thumb.03.L
											{
												OFFSET 0.024877 -0.021748 -0.005176
												CHANNELS 3 Xrotation Yrotation Zrotation
												End Site
												{
													OFFSET 0.016125 -0.013029 -0.001569
												}
											}
										}
									}
								}
								JOINT palm.02.L
								{
									OFFSET 0.032823 -0.025104 0.012281
									CHANNELS 6 Xposition Yposition Zposition Yrotation Xrotation Zrotation
									JOINT f_middle.01.L
									{
										OFFSET 0.055723 -0.038469 0.008037
										CHANNELS 3 Xrotation Yrotation Zrotation
										JOINT f_middle.02.L
										{
											OFFSET 0.038167 -0.027473 -0.015582
											CHANNELS 3 Xrotation Yrotation Zrotation
											JOINT f_middle.03.L
											{
												OFFSET 0.021707 -0.016587 -0.017037
												CHANNELS 3 Xrotation Yrotation Zrotation
												End Site
												{
													OFFSET 0.014112 -0.010584 -0.014294
												}
											}
										}
									}
								}
								JOINT palm.03.L
								{
									OFFSET 0.039230 -0.011402 0.008390
									CHANNELS 6 Xposition Yposition Zposition Yrotation Xrotation Zrotation
									JOINT f_ring.01.L
									{
										OFFSET 0.061796 -0.031470 0.007910
										CHANNELS 3 Xrotation Yrotation Zrotation
										JOINT f_ring.02.L
										{
											OFFSET 0.033092 -0.023401 -0.019127
											CHANNELS 3 Xrotation Yrotation Zrotation
											JOINT f_ring.03.L
											{
												OFFSET 0.021392 -0.015362 -0.017824
												CHANNELS 3 Xrotation Yrotation Zrotation
												End Site
												{
													OFFSET 0.008670 -0.007297 -0.014686
												}
											}
										}
									}
								}
								JOINT palm.04.L
								{
									OFFSET 0.043417 0.002450 0.002889
									CHANNELS 6 Xposition Yposition Zposition Yrotation Xrotation Zrotation
									JOINT f_pinky.01.L
									{
										OFFSET 0.069986 -0.026156 0.003627
										CHANNELS 3 Xrotation Yrotation Zrotation
										JOINT f_pinky.02.L
										{
											OFFSET 0.018520 -0.012813 -0.016429
											CHANNELS 3 Xrotation Yrotation Zrotation
											JOINT f_pinky.03.L
											{
												OFFSET 0.013822 -0.009796 -0.014947
												CHANNELS 3 Xrotation Yrotation Zrotation
												End Site
												{
													OFFSET 0.007238 -0.006103 -0.011657
												}
											}
										}
									}
								}
							}
						}
					}
				}
				JOINT shoulder.R
				{
					OFFSET -0.016662 0.078957 0.057696
					CHANNELS 6 Xposition Yposition Zposition Yrotation Xrotation Zrotation
					JOINT upper_arm.R
					{
						OFFSET -0.176972 -0.020537 -0.095144
						CHANNELS 6 Xposition Yposition Zposition Xrotation Yrotation Zrotation
						JOINT forearm.R
						{
							OFFSET -0.247100 -0.135500 -0.061800
							CHANNELS 3 Xrotation Yrotation Zrotation
							JOINT hand.R
							{
								OFFSET -0.217000 -0.143000 0.039300
								CHANNELS 3 Xrotation Yrotation Zrotation
								JOINT palm.01.R
								{
									OFFSET -0.021773 -0.038278 0.012988
									CHANNELS 6 Xposition Yposition Zposition Yrotation Xrotation Zrotation
									JOINT f_index.01.R
									{
										OFFSET -0.053212 -0.044139 0.008249
										CHANNELS 3 Xrotation Yrotation Zrotation
										JOINT f_index.02.R
										{
											OFFSET -0.036049 -0.024835 -0.010634
											CHANNELS 3 Xrotation Yrotation Zrotation
											JOINT f_index.03.R
											{
												OFFSET -0.021371 -0.014881 -0.010866
												CHANNELS 3 Xrotation Yrotation Zrotation
												End Site
												{
													OFFSET -0.015584 -0.009883 -0.013422
												}
											}
										}
									}
									JOINT thumb.01.R
									{
										OFFSET 0.009113 -0.002381 -0.024211
										CHANNELS 6 Xposition Yposition Zposition Xrotation Yrotation Zrotation
										JOINT thumb.02.R
										{
											OFFSET -0.019694 -0.035097 -0.011088
											CHANNELS 3 Xrotation Yrotation Zrotation
											JOINT thumb.03.R
											{
												OFFSET -0.024867 -0.021762 -0.005168
												CHANNELS 3 Xrotation Yrotation Zrotation
												End Site
												{
													OFFSET -0.016120 -0.013036 -0.001565
												}
											}
										}
									}
								}
								JOINT palm.02.R
								{
									OFFSET -0.032828 -0.025095 0.012286
									CHANNELS 6 Xposition Yposition Zposition Yrotation Xrotation Zrotation
									JOINT f_middle.01.R
									{
										OFFSET -0.055721 -0.038472 0.008040
										CHANNELS 3 Xrotation Yrotation Zrotation
										JOINT f_middle.02.R
										{
											OFFSET -0.038101 -0.027593 -0.015557
											CHANNELS 3 Xrotation Yrotation Zrotation
											JOINT f_middle.03.R
											{
												OFFSET -0.021730 -0.016530 -0.017054
												CHANNELS 3 Xrotation Yrotation Zrotation
												End Site
												{
													OFFSET -0.014096 -0.010608 -0.014293
												}
											}
										}
									}
								}
								JOINT palm.03.R
								{
									OFFSET -0.039192 -0.011488 0.008390
									CHANNELS 6 Xposition Yposition Zposition Yrotation Xrotation Zrotation
									JOINT f_ring.01.R
									{
										OFFSET -0.061839 -0.031387 0.007876
										CHANNELS 3 Xrotation Yrotation Zrotation
										JOINT f_ring.02.R
										{
											OFFSET -0.033068 -0.023437 -0.019125
											CHANNELS 3 Xrotation Yrotation Zrotation
											JOINT f_ring.03.R
											{
												OFFSET -0.021371 -0.015393 -0.017822
												CHANNELS 3 Xrotation Yrotation Zrotation
												End Site
												{
													OFFSET -0.008654 -0.007321 -0.014684
												}
											}
										}
									}
								}
								JOINT palm.04.R
								{
									OFFSET -0.043421 0.002443 0.002845
									CHANNELS 6 Xposition Yposition Zposition Yrotation Xrotation Zrotation
									JOINT f_pinky.01.R
									{
										OFFSET -0.069983 -0.026169 0.003599
										CHANNELS 3 Xrotation Yrotation Zrotation
										JOINT f_pinky.02.R
										{
											OFFSET -0.018501 -0.012842 -0.016428
											CHANNELS 3 Xrotation Yrotation Zrotation
											JOINT f_pinky.03.R
											{
												OFFSET -0.013806 -0.009821 -0.014946
												CHANNELS 3 Xrotation Yrotation Zrotation
												End Site
												{
													OFFSET -0.007226 -0.006121 -0.011655
												}
											}
										}
									}
								}
							}
						}
					}
				}
			}
		}
	}
	JOINT pelvis.L
	{
		OFFSET 0.000000 0.000000 0.000000
		CHANNELS 6 Xposition Yposition Zposition Xrotation Yrotation Zrotation
		JOINT thigh.L
		{
			OFFSET 0.101675 0.001054 -0.000000
			CHANNELS 3 Xrotation Yrotation Zrotation
			JOINT shin.L
			{
				OFFSET 0.000000 -0.534800 0.041000
				CHANNELS 3 Xrotation Yrotation Zrotation
				JOINT foot.L
				{
					OFFSET 0.000000 -0.452000 -0.044800
					CHANNELS 3 Xrotation Yrotation Zrotation
					JOINT toe.L
					{
						OFFSET -0.000000 -0.068500 0.109600
						CHANNELS 3 Xrotation Yrotation Zrotation
						End Site
						{
							OFFSET -0.000000 0.000000 0.067200
						}
					}
				}
				JOINT heel.L
				{
					OFFSET 0.000000 -0.452000 -0.044800
					CHANNELS 3 Xrotation Yrotation Zrotation
					JOINT heel.02.L
					{
						OFFSET -0.038000 -0.085200 0.016200
						CHANNELS 6 Xposition Yposition Zposition Xrotation Yrotation Zrotation
						End Site
						{
							OFFSET 0.080000 -0.000000 0.000000
						}
					}
				}
			}
		}
	}
	JOINT pelvis.R
	{
		OFFSET 0.000000 0.000000 0.000000
		CHANNELS 6 Xposition Yposition Zposition Xrotation Yrotation Zrotation
		JOINT thigh.R
		{
			OFFSET -0.094325 0.001054 0.000000
			CHANNELS 3 Xrotation Yrotation Zrotation
			JOINT shin.R
			{
				OFFSET 0.000000 -0.534800 0.041000
				CHANNELS 3 Xrotation Yrotation Zrotation
				JOINT foot.R
				{
					OFFSET 0.000000 -0.452000 -0.044800
					CHANNELS 3 Xrotation Yrotation Zrotation
					JOINT toe.R
					{
						OFFSET -0.000000 -0.068500 0.109600
						CHANNELS 3 Xrotation Yrotation Zrotation
						End Site
						{
							OFFSET -0.000000 0.000000 0.067200
						}
					}
				}
				JOINT heel.R
				{
					OFFSET 0.000000 -0.452000 -0.044800
					CHANNELS 3 Xrotation Yrotation Zrotation
					JOINT heel.02.R
					{
						OFFSET 0.038000 -0.085200 0.016200
						CHANNELS 6 Xposition Yposition Zposition Xrotation Yrotation Zrotation
						End Site
						{
							OFFSET -0.080000 0.000000 -0.000000
						}
					}
				}
			}
		}
	}
}
MOTION
Frames: 4
Frame Time: 0.041667
0.004568 0.201589 0.007114 8.039470 12.963352 86.041443 -0.000001 0.000000 0.000000 0.000000 0.000000 0.000001 -0.000000 0.000000 0.000000 0.000001 -0.000000 -0.000001 0.000924 0.155147 0.009274 -6.853289 0.023405 -9.498634 0.019937 0.078966 0.057518 10.912843 4.846808 38.134630 0.177024 -0.020465 -0.095062 -25.455398 -14.225156 -11.167190 36.213721 0.234904 108.654697 -0.000001 -0.000002 0.000005 0.021770 -0.038291 0.012954 0.000001 -0.000000 -0.000007 0.000001 -0.000000 -0.000000 -0.000001 0.000003 0.000009 0.000002 0.000005 -0.000003 -0.009090 -0.002348 -0.024223 0.000001 -0.000004 -0.000001 0.000002 0.000002 0.000001 0.000003 -0.000001 0.000001 0.032823 -0.025104 0.012281 -0.000000 0.000001 0.000002 0.000003 0.000004 -0.000003 -0.000006 -0.000001 -0.000000 -0.000001 0.000001 0.000003 0.039230 -0.011402 0.008390 -0.000002 -0.000001 0.000003 0.000001 -0.000000 -0.000004 -0.000004 0.000003 0.000003 -0.000005 -0.000002 0.000003 0.043417 0.002450 0.002889 -0.000001 0.000001 -0.000005 -0.000001 -0.000007 -0.000003 -0.000003 0.000003 0.000003 0.000002 0.000000 0.000002 -0.016662 0.078956 0.057696 -8.299815 6.137045 -47.156227 -0.176972 -0.020537 -0.095144 -4.097486 5.215827 -12.875294 -0.147586 -14.351030 -40.917631 -0.000001 0.000000 -0.000002 -0.021773 -0.038278 0.012988 0.000000 -0.000003 0.000002 -0.000000 0.000001 0.000002 -0.000001 -0.000004 -0.000001 -0.000002 0.000003 0.000002 0.009114 -0.002381 -0.024212 0.000000 0.000000 0.000004 -0.000000 -0.000004 0.000005 0.000001 -0.000000 -0.000001 -0.032828 -0.025095 0.012286 0.000001 0.000000 0.000001 0.000000 0.000000 -0.000001 -0.000001 -0.000002 -0.000003 0.000000 0.000003 -0.000003 -0.039192 -0.011488 0.008390 -0.000001 -0.000000 0.000001 -0.000000 0.000005 -0.000003 -0.000002 -0.000006 -0.000000 0.000000 -0.000001 -0.000000 -0.043421 0.002443 0.002845 -0.000001 -0.000001 0.000004 -0.000004 0.000000 0.000001 0.000001 -0.000004 0.000002 0.000003 0.000001 -0.000000 -0.000000 0.000000 -0.000000 -2.049357 -0.142669 0.643750 51.103250 -0.146716 -4.335466 -0.746977 -0.615136 6.220693 -0.000003 0.000000 -0.000000 0.000003 -0.000000 0.000001 -0.000002 0.000000 0.000001 -0.038000 -0.085200 0.016200 -0.000002 0.000000 -0.000001 -0.000000 0.000000 -0.000000 -2.010323 -0.141829 1.878026 50.332415 -0.041935 2.392846 -1.405453 0.754418 -7.634320 0.000000 -0.000000 0.000000 0.000005 0.000000 -0.000001 0.000005 -0.000000 -0.000000 0.038000 -0.085200 0.016200 0.000001 -0.000000 -0.000000 
0.004056 0.202313 0.007750 9.974485 11.783211 85.177725 0.000001 -0.000000 0.000000 -0.000001 0.000000 -0.000000 0.000000 -0.000000 0.000000 0.000001 -0.000001 -0.000000 0.000924 0.155148 0.009274 2.081855 -0.003364 -10.522697 0.019937 0.078966 0.057518 13.747291 5.097494 36.310215 0.177025 -0.020465 -0.095062 -30.150016 -17.247177 -13.551567 45.341244 7.469640 117.238203 -0.000000 0.000003 0.000004 0.021770 -0.038291 0.012954 0.000000 0.000002 -0.000004 -0.000001 0.000001 0.000005 -0.000002 0.000001 0.000008 -0.000003 0.000002 0.000002 -0.009090 -0.002348 -0.024223 -0.000003 0.000000 0.000003 -0.000003 -0.000001 0.000001 0.000002 0.000002 -0.000002 0.032823 -0.025104 0.012281 -0.000001 0.000001 0.000002 0.000000 0.000000 -0.000007 -0.000007 -0.000003 -0.000001 0.000003 -0.000000 0.000000 0.039230 -0.011402 0.008390 0.000002 0.000002 0.000004 0.000001 0.000002 -0.000000 -0.000002 0.000003 0.000006 -0.000000 -0.000000 0.000003 0.043417 0.002450 0.002889 0.000001 -0.000000 -0.000003 -0.000001 -0.000000 0.000001 0.000000 0.000001 0.000005 -0.000001 -0.000003 0.000001 -0.016662 0.078957 0.057696 -6.212030 6.301486 -49.495352 -0.176972 -0.020537 -0.095144 -3.570773 5.048429 -13.734117 1.908879 -7.653611 -22.301507 -0.000000 0.000002 0.000002 -0.021773 -0.038278 0.012988 0.000001 -0.000002 0.000002 -0.000001 0.000001 0.000001 -0.000003 0.000001 -0.000004 -0.000001 0.000000 0.000004 0.009114 -0.002381 -0.024211 -0.000000 -0.000002 -0.000001 -0.000001 0.000000 -0.000001 0.000002 0.000002 -0.000006 -0.032828 -0.025095 0.012286 0.000003 -0.000000 0.000001 -0.000001 0.000003 0.000002 0.000005 0.000003 0.000001 -0.000002 0.000000 -0.000003 -0.039192 -0.011488 0.008390 0.000001 -0.000000 0.000001 -0.000001 0.000001 -0.000003 0.000003 -0.000001 -0.000002 -0.000004 0.000000 -0.000001 -0.043421 0.002442 0.002845 -0.000001 -0.000000 0.000000 -0.000003 0.000009 0.000001 -0.000001 -0.000001 -0.000000 -0.000001 0.000001 0.000002 -0.000000 0.000000 -0.000000 -2.030538 -0.097977 0.139747 51.986110 -0.213147 -5.234704 -0.894741 -0.496252 5.015325 0.000002 0.000000 0.000000 -0.000000 0.000000 -0.000001 0.000002 0.000001 -0.000000 -0.038000 -0.085200 0.016200 0.000003 0.000000 -0.000000 -0.000000 0.000000 0.000000 -1.990351 -0.097459 1.374002 51.586616 -0.141263 1.153277 -0.564266 0.790124 -7.998004 0.000002 -0.000000 -0.000000 0.000005 0.000001 0.000001 -0.000002 -0.000000 -0.000001 0.038000 -0.085200 0.016200 -0.000006 0.000000 -0.000000 
0.005747 0.204058 0.007883 2.516446 12.863432 88.334802 0.000000 0.000000 0.000000 0.000000 -0.000000 -0.000000 -0.000000 0.000000 0.000000 0.000002 0.000000 -0.000000 0.000924 0.155147 0.009274 2.246960 -0.005005 -11.744620 0.019937 0.078966 0.057518 7.674272 3.606269 36.178317 0.177025 -0.020465 -0.095062 -32.323197 -16.578414 -15.223037 49.986316 8.563970 118.171835 -0.000001 -0.000000 -0.000002 0.021770 -0.038291 0.012954 0.000000 -0.000001 -0.000007 0.000001 -0.000003 -0.000002 -0.000001 -0.000000 0.000009 -0.000001 0.000002 0.000002 -0.009090 -0.002348 -0.024223 0.000003 -0.000001 -0.000003 0.000001 0.000002 0.000001 0.000004 0.000004 -0.000001 0.032823 -0.025104 0.012281 -0.000001 0.000002 -0.000001 0.000003 0.000000 -0.000005 0.000000 0.000000 0.000001 0.000000 -0.000002 0.000002 0.039230 -0.011402 0.008390 -0.000001 -0.000002 0.000004 0.000006 0.000001 -0.000000 -0.000001 0.000003 -0.000001 0.000002 0.000003 0.000001 0.043417 0.002450 0.002889 0.000000 0.000002 -0.000003 0.000000 -0.000004 0.000001 0.000005 -0.000003 0.000003 -0.000000 -0.000003 -0.000005 -0.016662 0.078957 0.057696 -11.094158 6.220564 -46.832042 -0.176972 -0.020537 -0.095144 -1.308112 1.106486 -16.509735 1.630797 -5.315619 -19.766320 -0.000000 0.000000 0.000004 -0.021773 -0.038278 0.012988 0.000001 -0.000004 0.000000 -0.000003 0.000000 -0.000006 -0.000004 0.000001 -0.000002 -0.000001 -0.000002 -0.000003 0.009113 -0.002381 -0.024212 0.000001 -0.000003 0.000000 -0.000000 -0.000002 -0.000001 -0.000001 0.000000 -0.000006 -0.032828 -0.025095 0.012286 0.000001 0.000000 0.000001 -0.000001 0.000002 -0.000001 0.000002 0.000003 -0.000000 -0.000002 0.000004 -0.000007 -0.039192 -0.011488 0.008390 0.000001 0.000001 -0.000004 -0.000001 0.000002 0.000000 -0.000001 0.000000 0.000002 0.000002 -0.000001 0.000001 -0.043421 0.002443 0.002845 -0.000000 0.000000 0.000000 -0.000003 0.000004 -0.000002 -0.000001 0.000001 0.000002 -0.000002 -0.000002 0.000003 -0.000000 0.000000 -0.000000 -2.092941 -0.471075 4.313615 52.014513 -0.170274 -4.694153 -2.042747 -0.339338 3.427766 0.000000 -0.000000 0.000000 0.000000 -0.000000 0.000000 -0.000002 -0.000000 0.000000 -0.038000 -0.085200 0.016200 -0.000001 -0.000000 0.000000 -0.000000 0.000000 -0.000000 -2.064328 -0.468617 5.548041 54.931229 0.036449 3.653971 8.600568 0.964859 -9.782907 0.000000 0.000000 0.000000 -0.000002 -0.000000 0.000000 0.000007 -0.000000 0.000000 0.038000 -0.085200 0.016200 -0.000004 -0.000000 0.000000 
0.005423 0.205254 0.008227 -0.149768 12.709692 89.769156 -0.000001 -0.000000 -0.000000 -0.000001 -0.000000 -0.000000 -0.000002 0.000000 0.000000 0.000001 0.000000 0.000000 0.000924 0.155147 0.009274 3.344063 -0.016111 -17.840335 0.019937 0.078966 0.057518 5.129537 3.312080 36.919167 0.177024 -0.020465 -0.095062 -34.773641 -17.694092 -16.279315 47.696516 -8.218740 107.787810 -0.000003 0.000002 0.000001 0.021770 -0.038291 0.012954 0.000003 0.000003 0.000001 0.000001 -0.000000 0.000001 0.000002 -0.000001 0.000003 0.000002 0.000003 0.000000 -0.009090 -0.002348 -0.024224 0.000003 0.000003 0.000001 0.000002 -0.000000 0.000001 -0.000001 0.000000 0.000003 0.032823 -0.025104 0.012281 0.000002 0.000003 0.000002 0.000002 0.000001 -0.000003 -0.000004 -0.000003 -0.000001 -0.000001 0.000001 0.000003 0.039230 -0.011402 0.008390 0.000001 -0.000000 0.000004 0.000002 0.000002 0.000003 0.000003 0.000001 -0.000004 0.000004 -0.000002 0.000003 0.043417 0.002450 0.002889 0.000000 0.000001 -0.000000 -0.000002 -0.000005 -0.000000 -0.000002 0.000003 -0.000000 0.000003 -0.000003 -0.000001 -0.016662 0.078957 0.057696 -12.964578 6.270292 -45.511138 -0.176972 -0.020537 -0.095144 -1.902227 1.447830 -15.170188 1.519723 -8.869759 -28.116983 0.000000 -0.000000 0.000004 -0.021773 -0.038278 0.012988 -0.000001 -0.000002 0.000000 -0.000001 0.000005 0.000004 0.000001 -0.000000 -0.000003 0.000002 0.000000 0.000001 0.009114 -0.002381 -0.024211 0.000002 -0.000000 0.000001 0.000003 -0.000004 -0.000003 0.000001 -0.000001 -0.000001 -0.032828 -0.025095 0.012286 0.000000 -0.000001 -0.000001 0.000001 0.000001 0.000002 0.000000 0.000000 -0.000001 -0.000006 0.000005 -0.000006 -0.039191 -0.011488 0.008390 -0.000000 -0.000000 -0.000002 -0.000002 0.000003 0.000000 0.000001 0.000001 0.000002 0.000001 0.000002 -0.000005 -0.043421 0.002443 0.002844 -0.000001 -0.000003 -0.000001 -0.000005 0.000003 -0.000002 0.000001 -0.000004 -0.000002 0.000000 0.000002 0.000002 -0.000000 0.000000 -0.000000 -2.105246 -0.545895 5.133730 53.097255 -0.101805 -3.824196 -5.134743 -0.282674 2.855097 0.000000 0.000000 0.000000 0.000004 0.000000 -0.000000 -0.000002 0.000001 0.000000 -0.038000 -0.085200 0.016200 0.000000 -0.000000 0.000000 0.000000 0.000000 -0.000000 -2.078979 -0.543259 6.368172 57.416367 0.029304 3.655558 7.158787 0.872851 -8.841977 0.000002 -0.000000 -0.000000 0.000005 -0.000001 0.000000 0.000005 0.000000 0.000000 0.038000 -0.085200 0.016200 0.000002 -0.000000 -0.000000 
